<svg xmlns="http://www.w3.org/2000/svg" width="36" height="44" viewBox="0 0 36 45" fill="none">
  <path d="M29.6524 0.5H6.34758C2.85639 0.5 0 3.24998 0 6.65998V38.318C0 41.728 2.85639 44.5 6.34758 44.5H29.6524C33.1663 44.5 36 41.728 36 38.318V6.65998C36 3.24998 33.1663 0.5 29.6524 0.5ZM8.68266 32.246H27.3173C28.2695 32.246 29.0176 32.994 29.0176 33.896C29.0176 34.798 28.2695 35.546 27.3173 35.546H8.68266C7.75319 35.546 6.9824 34.798 6.9824 33.896C6.9824 32.994 7.75319 32.246 8.68266 32.246ZM6.9824 22.588C6.9824 21.686 7.75319 20.938 8.68266 20.938H27.3173C28.2695 20.938 29.0176 21.686 29.0176 22.588C29.0176 23.512 28.2695 24.238 27.3173 24.238H8.68266C7.75319 24.238 6.9824 23.512 6.9824 22.588ZM27.3173 12.93H8.68266C7.75319 12.93 6.9824 12.204 6.9824 11.28C6.9824 10.378 7.75319 9.62999 8.68266 9.62999H27.3173C28.2695 9.62999 29.0176 10.378 29.0176 11.28C29.0176 12.204 28.2695 12.93 27.3173 12.93Z" fill="url(#paint0_linear_894_205)"/>
  <defs>
    <linearGradient id="paint0_linear_894_205" x1="18" y1="0.499999" x2="30.5" y2="40" gradientUnits="userSpaceOnUse">
      <stop stop-color="#417BBE"/>
      <stop offset="1" stop-color="#3A389F"/>
    </linearGradient>
  </defs>
</svg>